# MagicaVoxel @ Ephtracy

# material
mtllib small_tree.mtl
usemtl palette

# normals
vn -1 0 0
vn 1 0 0
vn 0 0 1
vn 0 0 -1
vn 0 -1 0
vn 0 1 0

# texcoords
vt 0.306641 0.5
vt 0.896484 0.5
vt 0.974609 0.5

# verts
v 47 26 -4
v 47 26 -14
v 47 40 -4
v 47 40 -14
v 50 0 -7
v 50 0 -11
v 50 3 -7
v 50 3 -11
v 50 6 -7
v 50 6 -11
v 50 7 -7
v 50 7 -11
v 50 8 -7
v 50 8 -11
v 50 10 -7
v 50 10 -11
v 50 14 -7
v 50 14 -11
v 50 17 -7
v 50 17 -11
v 50 20 -7
v 50 20 -11
v 50 21 -7
v 50 21 -11
v 50 22 -7
v 50 22 -11
v 50 24 -7
v 50 24 -11
v 50 26 -7
v 50 26 -11
v 52 14 -2
v 52 14 -7
v 52 17 -7
v 52 18 -2
v 52 18 -7
v 56 15 -10
v 56 15 -11
v 56 16 -9
v 56 16 -10
v 56 18 -8
v 56 18 -9
v 56 19 -2
v 56 19 -5
v 56 24 -2
v 56 24 -5
v 56 24 -8
v 56 24 -11
v 57 18 -3
v 57 18 -4
v 57 18 -7
v 57 18 -8
v 57 19 -3
v 57 19 -4
v 57 21 -7
v 57 21 -8
v 54 0 -7
v 54 0 -11
v 54 3 -7
v 54 3 -11
v 54 6 -7
v 54 6 -11
v 54 7 -7
v 54 7 -11
v 54 8 -7
v 54 8 -11
v 54 10 -7
v 54 10 -11
v 54 14 -7
v 54 14 -8
v 54 14 -10
v 54 14 -11
v 54 16 -9
v 54 16 -10
v 54 17 -9
v 54 17 -11
v 54 18 -7
v 54 18 -9
v 54 20 -7
v 54 20 -11
v 54 21 -7
v 54 21 -11
v 54 22 -7
v 54 22 -11
v 54 24 -7
v 54 24 -11
v 54 26 -7
v 54 26 -11
v 57 26 -4
v 57 26 -14
v 57 40 -4
v 57 40 -14
v 58 18 -3
v 58 18 -4
v 58 19 -3
v 58 19 -4
v 59 14 -2
v 59 14 -7
v 59 15 -10
v 59 15 -11
v 59 18 -2
v 59 18 -7
v 59 19 -2
v 59 19 -5
v 59 21 -8
v 59 21 -10
v 59 24 -2
v 59 24 -5
v 59 24 -8
v 59 24 -11
v 60 14 -7
v 60 14 -10
v 60 21 -7
v 60 21 -10
v 52 14 -2
v 52 18 -2
v 56 19 -2
v 56 24 -2
v 59 14 -2
v 59 18 -2
v 59 19 -2
v 59 24 -2
v 57 18 -3
v 57 19 -3
v 58 18 -3
v 58 19 -3
v 47 26 -4
v 47 40 -4
v 57 26 -4
v 57 40 -4
v 50 0 -7
v 50 3 -7
v 50 6 -7
v 50 7 -7
v 50 8 -7
v 50 10 -7
v 50 14 -7
v 50 17 -7
v 50 20 -7
v 50 21 -7
v 50 22 -7
v 50 24 -7
v 50 26 -7
v 52 14 -7
v 52 17 -7
v 52 18 -7
v 54 0 -7
v 54 3 -7
v 54 6 -7
v 54 7 -7
v 54 8 -7
v 54 10 -7
v 54 14 -7
v 54 18 -7
v 54 20 -7
v 54 21 -7
v 54 22 -7
v 54 24 -7
v 54 26 -7
v 57 18 -7
v 57 21 -7
v 59 14 -7
v 59 18 -7
v 60 14 -7
v 60 21 -7
v 56 18 -8
v 56 24 -8
v 57 18 -8
v 57 21 -8
v 59 21 -8
v 59 24 -8
v 57 18 -4
v 57 19 -4
v 58 18 -4
v 58 19 -4
v 56 19 -5
v 56 24 -5
v 59 19 -5
v 59 24 -5
v 54 16 -9
v 54 17 -9
v 54 18 -9
v 56 16 -9
v 56 18 -9
v 54 14 -10
v 54 16 -10
v 56 15 -10
v 56 16 -10
v 57 14 -10
v 57 15 -10
v 59 15 -10
v 59 21 -10
v 60 14 -10
v 60 21 -10
v 50 0 -11
v 50 3 -11
v 50 6 -11
v 50 7 -11
v 50 8 -11
v 50 10 -11
v 50 14 -11
v 50 17 -11
v 50 20 -11
v 50 21 -11
v 50 22 -11
v 50 24 -11
v 50 26 -11
v 54 0 -11
v 54 3 -11
v 54 6 -11
v 54 7 -11
v 54 8 -11
v 54 10 -11
v 54 14 -11
v 54 17 -11
v 54 20 -11
v 54 21 -11
v 54 22 -11
v 54 24 -11
v 54 26 -11
v 56 15 -11
v 56 24 -11
v 59 15 -11
v 59 24 -11
v 47 26 -14
v 47 40 -14
v 57 26 -14
v 57 40 -14
v 50 0 -7
v 54 0 -7
v 50 0 -11
v 54 0 -11
v 52 14 -2
v 59 14 -2
v 57 14 -3
v 58 14 -3
v 57 14 -4
v 58 14 -4
v 56 14 -6
v 57 14 -6
v 52 14 -7
v 54 14 -7
v 59 14 -7
v 60 14 -7
v 54 14 -8
v 56 14 -8
v 54 14 -10
v 57 14 -10
v 60 14 -10
v 56 15 -10
v 57 15 -10
v 59 15 -10
v 56 15 -11
v 59 15 -11
v 56 19 -2
v 59 19 -2
v 57 19 -3
v 58 19 -3
v 57 19 -4
v 58 19 -4
v 56 19 -5
v 59 19 -5
v 47 26 -4
v 57 26 -4
v 50 26 -7
v 54 26 -7
v 50 26 -11
v 54 26 -11
v 47 26 -14
v 57 26 -14
v 54 16 -9
v 56 16 -9
v 54 16 -10
v 56 16 -10
v 52 18 -2
v 59 18 -2
v 57 18 -3
v 58 18 -3
v 57 18 -4
v 58 18 -4
v 52 18 -7
v 54 18 -7
v 57 18 -7
v 59 18 -7
v 56 18 -8
v 57 18 -8
v 54 18 -9
v 56 18 -9
v 57 21 -7
v 60 21 -7
v 57 21 -8
v 59 21 -8
v 59 21 -10
v 60 21 -10
v 56 24 -2
v 59 24 -2
v 56 24 -5
v 59 24 -5
v 56 24 -8
v 59 24 -8
v 56 24 -11
v 59 24 -11
v 47 40 -4
v 57 40 -4
v 47 40 -14
v 57 40 -14

# faces
f 3/2/1 2/2/1 1/2/1
f 4/2/1 2/2/1 3/2/1
f 7/1/1 6/1/1 5/1/1
f 8/1/1 6/1/1 7/1/1
f 9/3/1 8/3/1 7/3/1
f 10/3/1 8/3/1 9/3/1
f 11/1/1 10/1/1 9/1/1
f 12/1/1 10/1/1 11/1/1
f 13/3/1 12/3/1 11/3/1
f 14/3/1 12/3/1 13/3/1
f 15/1/1 14/1/1 13/1/1
f 16/1/1 14/1/1 15/1/1
f 17/3/1 16/3/1 15/3/1
f 18/3/1 16/3/1 17/3/1
f 19/1/1 18/1/1 17/1/1
f 20/1/1 18/1/1 19/1/1
f 21/3/1 20/3/1 19/3/1
f 22/3/1 20/3/1 21/3/1
f 23/1/1 22/1/1 21/1/1
f 24/1/1 22/1/1 23/1/1
f 25/3/1 24/3/1 23/3/1
f 26/3/1 24/3/1 25/3/1
f 27/1/1 26/1/1 25/1/1
f 28/1/1 26/1/1 27/1/1
f 29/3/1 28/3/1 27/3/1
f 30/3/1 28/3/1 29/3/1
f 33/2/1 32/2/1 31/2/1
f 34/2/1 33/2/1 31/2/1
f 35/2/1 33/2/1 34/2/1
f 39/2/1 37/2/1 36/2/1
f 41/2/1 39/2/1 38/2/1
f 44/2/1 43/2/1 42/2/1
f 45/2/1 43/2/1 44/2/1
f 46/2/1 41/2/1 40/2/1
f 47/2/1 37/2/1 39/2/1
f 47/2/1 41/2/1 46/2/1
f 47/2/1 39/2/1 41/2/1
f 52/1/1 49/1/1 48/1/1
f 53/1/1 49/1/1 52/1/1
f 54/2/1 51/2/1 50/2/1
f 55/2/1 51/2/1 54/2/1
f 56/1/2 57/1/2 58/1/2
f 58/1/2 57/1/2 59/1/2
f 58/3/2 59/3/2 60/3/2
f 60/3/2 59/3/2 61/3/2
f 60/1/2 61/1/2 62/1/2
f 62/1/2 61/1/2 63/1/2
f 62/3/2 63/3/2 64/3/2
f 64/3/2 63/3/2 65/3/2
f 64/1/2 65/1/2 66/1/2
f 66/1/2 65/1/2 67/1/2
f 66/3/2 67/3/2 68/3/2
f 68/3/2 67/3/2 69/3/2
f 69/3/2 67/3/2 70/3/2
f 70/3/2 67/3/2 71/3/2
f 70/1/2 71/1/2 73/1/2
f 72/1/2 73/1/2 74/1/2
f 73/1/2 71/1/2 75/1/2
f 74/1/2 73/1/2 75/1/2
f 74/3/2 75/3/2 77/3/2
f 76/3/2 77/3/2 78/3/2
f 77/3/2 75/3/2 79/3/2
f 78/3/2 77/3/2 79/3/2
f 78/1/2 79/1/2 80/1/2
f 80/1/2 79/1/2 81/1/2
f 80/3/2 81/3/2 82/3/2
f 82/3/2 81/3/2 83/3/2
f 82/1/2 83/1/2 84/1/2
f 84/1/2 83/1/2 85/1/2
f 84/3/2 85/3/2 86/3/2
f 86/3/2 85/3/2 87/3/2
f 88/2/2 89/2/2 90/2/2
f 90/2/2 89/2/2 91/2/2
f 92/1/2 93/1/2 94/1/2
f 94/1/2 93/1/2 95/1/2
f 96/2/2 97/2/2 100/2/2
f 100/2/2 97/2/2 101/2/2
f 98/2/2 99/2/2 105/2/2
f 102/2/2 103/2/2 106/2/2
f 106/2/2 103/2/2 107/2/2
f 104/2/2 105/2/2 108/2/2
f 105/2/2 99/2/2 109/2/2
f 108/2/2 105/2/2 109/2/2
f 110/2/2 111/2/2 112/2/2
f 112/2/2 111/2/2 113/2/2
f 118/2/3 115/2/3 114/2/3
f 119/2/3 115/2/3 118/2/3
f 120/2/3 117/2/3 116/2/3
f 121/2/3 117/2/3 120/2/3
f 124/1/3 123/1/3 122/1/3
f 125/1/3 123/1/3 124/1/3
f 128/2/3 127/2/3 126/2/3
f 129/2/3 127/2/3 128/2/3
f 143/3/3 136/3/3 135/3/3
f 143/1/3 137/1/3 136/1/3
f 144/3/3 138/3/3 137/3/3
f 144/1/3 137/1/3 143/1/3
f 145/3/3 138/3/3 144/3/3
f 146/1/3 131/1/3 130/1/3
f 147/3/3 132/3/3 131/3/3
f 147/1/3 131/1/3 146/1/3
f 148/1/3 133/1/3 132/1/3
f 148/3/3 132/3/3 147/3/3
f 149/3/3 134/3/3 133/3/3
f 149/1/3 133/1/3 148/1/3
f 150/1/3 135/1/3 134/1/3
f 150/3/3 134/3/3 149/3/3
f 151/3/3 143/3/3 135/3/3
f 151/1/3 135/1/3 150/1/3
f 152/3/3 143/3/3 151/3/3
f 153/3/3 138/3/3 145/3/3
f 154/1/3 139/1/3 138/1/3
f 154/3/3 138/3/3 153/3/3
f 155/3/3 140/3/3 139/3/3
f 155/1/3 139/1/3 154/1/3
f 156/1/3 141/1/3 140/1/3
f 156/3/3 140/3/3 155/3/3
f 157/3/3 142/3/3 141/3/3
f 157/1/3 141/1/3 156/1/3
f 158/3/3 142/3/3 157/3/3
f 162/2/3 160/2/3 159/2/3
f 163/2/3 162/2/3 161/2/3
f 164/2/3 160/2/3 162/2/3
f 164/2/3 162/2/3 163/2/3
f 167/2/3 166/2/3 165/2/3
f 168/2/3 166/2/3 167/2/3
f 169/2/3 166/2/3 168/2/3
f 170/2/3 166/2/3 169/2/3
f 171/1/4 172/1/4 173/1/4
f 173/1/4 172/1/4 174/1/4
f 175/2/4 176/2/4 177/2/4
f 177/2/4 176/2/4 178/2/4
f 179/2/4 180/2/4 182/2/4
f 180/2/4 181/2/4 182/2/4
f 182/2/4 181/2/4 183/2/4
f 184/1/4 185/1/4 186/1/4
f 186/1/4 185/1/4 187/1/4
f 184/1/4 186/1/4 188/1/4
f 188/1/4 186/1/4 189/1/4
f 188/2/4 189/2/4 190/2/4
f 188/2/4 190/2/4 192/2/4
f 190/2/4 191/2/4 192/2/4
f 192/2/4 191/2/4 193/2/4
f 194/1/4 195/1/4 207/1/4
f 195/3/4 196/3/4 208/3/4
f 207/1/4 195/1/4 208/1/4
f 196/1/4 197/1/4 209/1/4
f 208/3/4 196/3/4 209/3/4
f 197/3/4 198/3/4 210/3/4
f 209/1/4 197/1/4 210/1/4
f 198/1/4 199/1/4 211/1/4
f 210/3/4 198/3/4 211/3/4
f 199/3/4 200/3/4 212/3/4
f 211/1/4 199/1/4 212/1/4
f 200/1/4 201/1/4 213/1/4
f 212/3/4 200/3/4 213/3/4
f 201/3/4 202/3/4 214/3/4
f 213/1/4 201/1/4 214/1/4
f 202/1/4 203/1/4 215/1/4
f 214/3/4 202/3/4 215/3/4
f 203/3/4 204/3/4 216/3/4
f 215/1/4 203/1/4 216/1/4
f 204/1/4 205/1/4 217/1/4
f 216/3/4 204/3/4 217/3/4
f 205/3/4 206/3/4 218/3/4
f 217/1/4 205/1/4 218/1/4
f 218/3/4 206/3/4 219/3/4
f 220/2/4 221/2/4 222/2/4
f 222/2/4 221/2/4 223/2/4
f 224/2/4 225/2/4 226/2/4
f 226/2/4 225/2/4 227/2/4
f 230/1/5 229/1/5 228/1/5
f 231/1/5 229/1/5 230/1/5
f 234/2/5 233/2/5 232/2/5
f 235/2/5 233/2/5 234/2/5
f 236/2/5 234/2/5 232/2/5
f 236/1/5 235/1/5 234/1/5
f 237/2/5 233/2/5 235/2/5
f 237/1/5 235/1/5 236/1/5
f 238/2/5 236/2/5 232/2/5
f 238/2/5 237/2/5 236/2/5
f 239/2/5 237/2/5 238/2/5
f 240/2/5 238/2/5 232/2/5
f 241/2/5 238/2/5 240/2/5
f 242/2/5 233/2/5 237/2/5
f 242/2/5 237/2/5 239/2/5
f 244/2/5 238/2/5 241/2/5
f 245/1/5 239/1/5 238/1/5
f 245/2/5 238/2/5 244/2/5
f 246/1/5 245/1/5 244/1/5
f 247/2/5 243/2/5 242/2/5
f 247/1/5 245/1/5 246/1/5
f 247/2/5 242/2/5 239/2/5
f 247/1/5 239/1/5 245/1/5
f 248/2/5 243/2/5 247/2/5
f 252/2/5 250/2/5 249/2/5
f 252/2/5 251/2/5 250/2/5
f 253/2/5 251/2/5 252/2/5
f 256/2/5 255/2/5 254/2/5
f 257/2/5 255/2/5 256/2/5
f 258/2/5 256/2/5 254/2/5
f 259/2/5 255/2/5 257/2/5
f 260/2/5 258/2/5 254/2/5
f 260/2/5 259/2/5 258/2/5
f 261/2/5 255/2/5 259/2/5
f 261/2/5 259/2/5 260/2/5
f 264/2/5 263/2/5 262/2/5
f 265/2/5 263/2/5 264/2/5
f 266/2/5 264/2/5 262/2/5
f 267/2/5 263/2/5 265/2/5
f 268/2/5 266/2/5 262/2/5
f 268/2/5 267/2/5 266/2/5
f 269/2/5 263/2/5 267/2/5
f 269/2/5 267/2/5 268/2/5
f 270/1/6 271/1/6 272/1/6
f 272/1/6 271/1/6 273/1/6
f 274/2/6 275/2/6 276/2/6
f 276/2/6 275/2/6 277/2/6
f 274/2/6 276/2/6 278/2/6
f 277/2/6 275/2/6 279/2/6
f 274/2/6 278/2/6 280/2/6
f 278/2/6 279/2/6 280/2/6
f 280/2/6 279/2/6 281/2/6
f 281/2/6 279/2/6 282/2/6
f 279/2/6 275/2/6 283/2/6
f 282/2/6 279/2/6 283/2/6
f 281/2/6 282/2/6 284/2/6
f 284/2/6 282/2/6 285/2/6
f 281/2/6 284/2/6 286/2/6
f 286/2/6 284/2/6 287/2/6
f 288/2/6 289/2/6 290/2/6
f 290/2/6 289/2/6 291/2/6
f 291/2/6 289/2/6 292/2/6
f 292/2/6 289/2/6 293/2/6
f 294/2/6 295/2/6 296/2/6
f 296/2/6 295/2/6 297/2/6
f 298/2/6 299/2/6 300/2/6
f 300/2/6 299/2/6 301/2/6
f 302/2/6 303/2/6 304/2/6
f 304/2/6 303/2/6 305/2/6
