# MagicaVoxel @ Ephtracy

# material
mtllib player.mtl
usemtl palette

# normals
vn -1 0 0
vn 1 0 0
vn 0 0 1
vn 0 0 -1
vn 0 -1 0
vn 0 1 0

# texcoords
vt 0.00195313 0.5
vt 0.0332031 0.5
vt 0.0410156 0.5
vt 0.0605469 0.5
vt 0.689453 0.5
vt 0.693359 0.5

# verts
v -15 5 5
v -15 5 3
v -15 6 5
v -15 6 3
v -14 5 6
v -14 5 5
v -14 5 3
v -14 5 2
v -14 6 6
v -14 6 5
v -14 6 3
v -14 6 2
v -8 5 -6
v -8 5 -8
v -8 6 -6
v -8 6 -8
v -7 5 -5
v -7 5 -6
v -7 6 -5
v -7 6 -6
v -6 5 -4
v -6 5 -5
v -6 6 -4
v -6 6 -5
v -5 4 4
v -5 4 3
v -5 5 4
v -5 5 3
v -5 5 -3
v -5 5 -4
v -5 6 -3
v -5 6 -4
v -4 5 13
v -4 5 12
v -4 5 11
v -4 5 10
v -4 5 9
v -4 5 6
v -4 5 2
v -4 5 1
v -4 5 -0
v -4 5 -1
v -4 5 -2
v -4 5 -3
v -4 6 13
v -4 6 12
v -4 6 11
v -4 6 10
v -4 6 9
v -4 6 6
v -4 6 2
v -4 6 -3
v -4 6 -7
v -4 7 13
v -4 7 12
v -4 7 11
v -4 7 10
v -4 7 9
v -4 7 1
v -4 7 -0
v -4 7 -1
v -4 7 -2
v -4 7 -3
v -4 7 -7
v -3 4 12
v -3 4 11
v -3 5 14
v -3 5 13
v -3 5 12
v -3 5 11
v -3 6 14
v -3 6 13
v -3 7 14
v -3 7 13
v -3 7 7
v -3 7 3
v -3 7 2
v -3 7 -3
v -3 7 -7
v -3 8 7
v -3 8 3
v -3 8 2
v -3 8 -3
v -3 8 -4
v -3 8 -7
v -3 9 -4
v -3 9 -5
v -3 9 -7
v -3 10 -5
v -3 10 -6
v -3 10 -7
v -3 10 -8
v -3 11 -6
v -3 11 -8
v -1 4 4
v -1 4 3
v -1 5 4
v -1 5 3
v 2 5 -7
v 2 5 -8
v 2 6 -7
v 2 6 -8
v -7 5 -7
v -7 5 -8
v -7 6 -7
v -7 6 -8
v -4 4 4
v -4 4 3
v -4 5 4
v -4 5 3
v -2 4 12
v -2 4 11
v -2 5 14
v -2 5 13
v -2 5 12
v -2 5 11
v -2 6 14
v -2 6 13
v -2 7 14
v -2 7 13
v -2 7 7
v -2 7 3
v -2 7 2
v -2 7 -3
v -2 7 -7
v -2 8 7
v -2 8 3
v -2 8 2
v -2 8 -3
v -2 8 -4
v -2 8 -7
v -2 9 -4
v -2 9 -5
v -2 9 -7
v -2 10 -5
v -2 10 -6
v -2 10 -7
v -2 10 -8
v -2 11 -6
v -2 11 -8
v -1 5 13
v -1 5 12
v -1 5 11
v -1 5 10
v -1 5 9
v -1 5 6
v -1 5 2
v -1 5 1
v -1 5 -0
v -1 5 -1
v -1 5 -2
v -1 5 -3
v -1 6 13
v -1 6 12
v -1 6 11
v -1 6 10
v -1 6 9
v -1 6 6
v -1 6 2
v -1 6 -3
v -1 6 -7
v -1 7 13
v -1 7 12
v -1 7 11
v -1 7 10
v -1 7 9
v -1 7 1
v -1 7 -0
v -1 7 -1
v -1 7 -2
v -1 7 -3
v -1 7 -7
v 0 4 4
v 0 4 3
v 0 5 4
v 0 5 3
v 0 5 -3
v 0 5 -4
v 0 6 -3
v 0 6 -4
v 1 5 -4
v 1 5 -5
v 1 6 -4
v 1 6 -5
v 2 5 -5
v 2 5 -6
v 2 6 -5
v 2 6 -6
v 3 5 -6
v 3 5 -8
v 3 6 -6
v 3 6 -8
v 9 5 6
v 9 5 5
v 9 5 3
v 9 5 2
v 9 6 6
v 9 6 5
v 9 6 3
v 9 6 2
v 10 5 5
v 10 5 3
v 10 6 5
v 10 6 3
v -3 5 14
v -3 6 14
v -3 7 14
v -2 5 14
v -2 6 14
v -2 7 14
v -4 5 13
v -4 6 13
v -4 7 13
v -3 5 13
v -3 6 13
v -3 7 13
v -2 5 13
v -2 6 13
v -2 7 13
v -1 5 13
v -1 6 13
v -1 7 13
v -3 4 12
v -3 5 12
v -2 4 12
v -2 5 12
v -3 7 7
v -3 8 7
v -2 7 7
v -2 8 7
v -14 5 6
v -14 6 6
v -13 5 6
v -13 6 6
v -8 5 6
v -8 6 6
v -7 5 6
v -7 6 6
v -6 5 6
v -6 6 6
v -5 5 6
v -5 6 6
v -4 5 6
v -4 6 6
v -1 5 6
v -1 6 6
v 0 5 6
v 0 6 6
v 1 5 6
v 1 6 6
v 2 5 6
v 2 6 6
v 3 5 6
v 3 6 6
v 8 5 6
v 8 6 6
v 9 5 6
v 9 6 6
v -15 5 5
v -15 6 5
v -14 5 5
v -14 6 5
v 9 5 5
v 9 6 5
v 10 5 5
v 10 6 5
v -5 4 4
v -5 5 4
v -4 4 4
v -4 5 4
v -1 4 4
v -1 5 4
v 0 4 4
v 0 5 4
v -5 5 -3
v -5 6 -3
v -4 5 -3
v -4 6 -3
v -3 7 -3
v -3 8 -3
v -2 7 -3
v -2 8 -3
v -1 5 -3
v -1 6 -3
v 0 5 -3
v 0 6 -3
v -6 5 -4
v -6 6 -4
v -5 5 -4
v -5 6 -4
v -3 8 -4
v -3 9 -4
v -2 8 -4
v -2 9 -4
v 0 5 -4
v 0 6 -4
v 1 5 -4
v 1 6 -4
v -7 5 -5
v -7 6 -5
v -6 5 -5
v -6 6 -5
v -3 9 -5
v -3 10 -5
v -2 9 -5
v -2 10 -5
v 1 5 -5
v 1 6 -5
v 2 5 -5
v 2 6 -5
v -8 5 -6
v -8 6 -6
v -7 5 -6
v -7 6 -6
v -3 10 -6
v -3 11 -6
v -2 10 -6
v -2 11 -6
v 2 5 -6
v 2 6 -6
v 3 5 -6
v 3 6 -6
v -3 4 11
v -3 5 11
v -2 4 11
v -2 5 11
v -15 5 3
v -15 6 3
v -14 5 3
v -14 6 3
v -5 4 3
v -5 5 3
v -4 4 3
v -4 5 3
v -1 4 3
v -1 5 3
v 0 4 3
v 0 5 3
v 9 5 3
v 9 6 3
v 10 5 3
v 10 6 3
v -14 5 2
v -14 6 2
v -13 5 2
v -13 6 2
v -8 5 2
v -8 6 2
v -7 5 2
v -7 6 2
v -6 5 2
v -6 6 2
v -5 5 2
v -5 6 2
v -4 5 2
v -4 6 2
v -3 7 2
v -3 8 2
v -2 7 2
v -2 8 2
v -1 5 2
v -1 6 2
v 0 5 2
v 0 6 2
v 1 5 2
v 1 6 2
v 2 5 2
v 2 6 2
v 3 5 2
v 3 6 2
v 8 5 2
v 8 6 2
v 9 5 2
v 9 6 2
v -7 5 -7
v -7 6 -7
v -6 5 -7
v -6 6 -7
v -5 5 -7
v -5 6 -7
v -4 6 -7
v -4 7 -7
v -3 7 -7
v -3 8 -7
v -3 9 -7
v -3 10 -7
v -2 7 -7
v -2 8 -7
v -2 9 -7
v -2 10 -7
v -1 6 -7
v -1 7 -7
v 0 5 -7
v 0 6 -7
v 1 5 -7
v 1 6 -7
v 2 5 -7
v 2 6 -7
v -8 5 -8
v -8 6 -8
v -7 5 -8
v -7 6 -8
v -3 10 -8
v -3 11 -8
v -2 10 -8
v -2 11 -8
v 2 5 -8
v 2 6 -8
v 3 5 -8
v 3 6 -8
v -3 4 12
v -2 4 12
v -3 4 11
v -2 4 11
v -5 4 4
v -4 4 4
v -1 4 4
v 0 4 4
v -5 4 3
v -4 4 3
v -1 4 3
v 0 4 3
v -3 5 14
v -2 5 14
v -4 5 13
v -3 5 13
v -2 5 13
v -1 5 13
v -4 5 12
v -3 5 12
v -2 5 12
v -1 5 12
v -4 5 11
v -3 5 11
v -2 5 11
v -1 5 11
v -4 5 10
v -3 5 10
v -2 5 10
v -1 5 10
v -4 5 9
v -3 5 9
v -2 5 9
v -1 5 9
v -14 5 6
v -13 5 6
v -8 5 6
v -7 5 6
v -6 5 6
v -5 5 6
v -4 5 6
v -1 5 6
v 0 5 6
v 1 5 6
v 2 5 6
v 3 5 6
v 8 5 6
v 9 5 6
v -15 5 5
v -14 5 5
v -13 5 5
v 8 5 5
v 9 5 5
v 10 5 5
v -5 5 4
v -4 5 4
v -1 5 4
v 0 5 4
v -15 5 3
v -14 5 3
v -13 5 3
v -5 5 3
v -4 5 3
v -1 5 3
v 0 5 3
v 8 5 3
v 9 5 3
v 10 5 3
v -14 5 2
v -13 5 2
v -8 5 2
v -7 5 2
v -6 5 2
v -5 5 2
v -4 5 2
v -1 5 2
v 0 5 2
v 1 5 2
v 2 5 2
v 3 5 2
v 8 5 2
v 9 5 2
v -4 5 1
v -1 5 1
v -4 5 -0
v -1 5 -0
v -4 5 -1
v -1 5 -1
v -4 5 -2
v -1 5 -2
v -5 5 -3
v -4 5 -3
v -1 5 -3
v 0 5 -3
v -6 5 -4
v -5 5 -4
v 0 5 -4
v 1 5 -4
v -7 5 -5
v -6 5 -5
v 1 5 -5
v 2 5 -5
v -8 5 -6
v -7 5 -6
v 2 5 -6
v 3 5 -6
v -7 5 -7
v -6 5 -7
v -5 5 -7
v 0 5 -7
v 1 5 -7
v 2 5 -7
v -8 5 -8
v -7 5 -8
v 2 5 -8
v 3 5 -8
v -3 10 -7
v -2 10 -7
v -3 10 -8
v -2 10 -8
v -14 6 6
v -13 6 6
v -8 6 6
v -7 6 6
v -6 6 6
v -5 6 6
v -4 6 6
v -1 6 6
v 0 6 6
v 1 6 6
v 2 6 6
v 3 6 6
v 8 6 6
v 9 6 6
v -15 6 5
v -14 6 5
v -13 6 5
v 8 6 5
v 9 6 5
v 10 6 5
v -15 6 3
v -14 6 3
v -13 6 3
v 8 6 3
v 9 6 3
v 10 6 3
v -14 6 2
v -13 6 2
v -8 6 2
v -7 6 2
v -6 6 2
v -5 6 2
v -4 6 2
v -1 6 2
v 0 6 2
v 1 6 2
v 2 6 2
v 3 6 2
v 8 6 2
v 9 6 2
v -5 6 -3
v -4 6 -3
v -1 6 -3
v 0 6 -3
v -6 6 -4
v -5 6 -4
v 0 6 -4
v 1 6 -4
v -7 6 -5
v -6 6 -5
v 1 6 -5
v 2 6 -5
v -8 6 -6
v -7 6 -6
v 2 6 -6
v 3 6 -6
v -7 6 -7
v -6 6 -7
v -5 6 -7
v -4 6 -7
v -1 6 -7
v 0 6 -7
v 1 6 -7
v 2 6 -7
v -8 6 -8
v -7 6 -8
v 2 6 -8
v 3 6 -8
v -3 7 14
v -2 7 14
v -4 7 13
v -3 7 13
v -2 7 13
v -1 7 13
v -4 7 12
v -3 7 12
v -2 7 12
v -1 7 12
v -4 7 11
v -3 7 11
v -2 7 11
v -1 7 11
v -4 7 10
v -3 7 10
v -2 7 10
v -1 7 10
v -4 7 9
v -3 7 9
v -2 7 9
v -1 7 9
v -3 7 7
v -2 7 7
v -3 7 3
v -2 7 3
v -3 7 2
v -2 7 2
v -4 7 1
v -3 7 1
v -2 7 1
v -1 7 1
v -4 7 -0
v -1 7 -0
v -4 7 -1
v -1 7 -1
v -4 7 -2
v -1 7 -2
v -4 7 -3
v -3 7 -3
v -2 7 -3
v -1 7 -3
v -4 7 -7
v -3 7 -7
v -2 7 -7
v -1 7 -7
v -3 8 7
v -2 8 7
v -3 8 3
v -2 8 3
v -3 8 2
v -2 8 2
v -3 8 -3
v -2 8 -3
v -3 8 -4
v -2 8 -4
v -3 9 -4
v -2 9 -4
v -3 9 -5
v -2 9 -5
v -3 10 -5
v -2 10 -5
v -3 10 -6
v -2 10 -6
v -3 11 -6
v -2 11 -6
v -3 11 -8
v -2 11 -8

# faces
f 3/1/1 2/1/1 1/1/1
f 4/1/1 2/1/1 3/1/1
f 9/1/1 6/1/1 5/1/1
f 10/1/1 6/1/1 9/1/1
f 11/1/1 8/1/1 7/1/1
f 12/1/1 8/1/1 11/1/1
f 15/2/1 14/2/1 13/2/1
f 16/2/1 14/2/1 15/2/1
f 19/2/1 18/2/1 17/2/1
f 20/2/1 18/2/1 19/2/1
f 23/5/1 22/5/1 21/5/1
f 24/5/1 22/5/1 23/5/1
f 27/4/1 26/4/1 25/4/1
f 28/4/1 26/4/1 27/4/1
f 31/2/1 30/2/1 29/2/1
f 32/2/1 30/2/1 31/2/1
f 45/5/1 34/5/1 33/5/1
f 46/1/1 35/1/1 34/1/1
f 46/5/1 34/5/1 45/5/1
f 47/5/1 36/5/1 35/5/1
f 47/1/1 35/1/1 46/1/1
f 48/1/1 37/1/1 36/1/1
f 48/5/1 36/5/1 47/5/1
f 49/2/1 38/2/1 37/2/1
f 49/1/1 37/1/1 48/1/1
f 50/2/1 38/2/1 49/2/1
f 51/2/1 40/2/1 39/2/1
f 52/5/1 44/5/1 43/5/1
f 54/1/1 46/1/1 45/1/1
f 55/5/1 47/5/1 46/5/1
f 55/1/1 46/1/1 54/1/1
f 56/1/1 48/1/1 47/1/1
f 56/5/1 47/5/1 55/5/1
f 57/5/1 49/5/1 48/5/1
f 57/1/1 48/1/1 56/1/1
f 58/2/1 51/2/1 50/2/1
f 58/5/1 49/5/1 57/5/1
f 58/2/1 50/2/1 49/2/1
f 59/1/1 41/1/1 40/1/1
f 59/2/1 51/2/1 58/2/1
f 59/2/1 40/2/1 51/2/1
f 60/5/1 42/5/1 41/5/1
f 60/1/1 41/1/1 59/1/1
f 61/1/1 43/1/1 42/1/1
f 61/5/1 42/5/1 60/5/1
f 62/5/1 52/5/1 43/5/1
f 62/1/1 43/1/1 61/1/1
f 63/2/1 53/2/1 52/2/1
f 63/5/1 52/5/1 62/5/1
f 64/2/1 53/2/1 63/2/1
f 69/4/1 66/4/1 65/4/1
f 70/4/1 66/4/1 69/4/1
f 71/5/1 68/5/1 67/5/1
f 72/5/1 68/5/1 71/5/1
f 73/1/1 72/1/1 71/1/1
f 74/1/1 72/1/1 73/1/1
f 80/3/1 76/3/1 75/3/1
f 81/1/1 77/1/1 76/1/1
f 81/3/1 76/3/1 80/3/1
f 82/1/1 77/1/1 81/1/1
f 83/2/1 79/2/1 78/2/1
f 84/2/1 79/2/1 83/2/1
f 85/2/1 79/2/1 84/2/1
f 86/5/1 85/5/1 84/5/1
f 87/5/1 85/5/1 86/5/1
f 88/5/1 85/5/1 87/5/1
f 89/2/1 88/2/1 87/2/1
f 90/2/1 88/2/1 89/2/1
f 91/2/1 88/2/1 90/2/1
f 93/2/1 91/2/1 90/2/1
f 93/2/1 92/2/1 91/2/1
f 94/2/1 92/2/1 93/2/1
f 97/4/1 96/4/1 95/4/1
f 98/4/1 96/4/1 97/4/1
f 101/2/1 100/2/1 99/2/1
f 102/2/1 100/2/1 101/2/1
f 103/2/2 104/2/2 105/2/2
f 105/2/2 104/2/2 106/2/2
f 107/4/2 108/4/2 109/4/2
f 109/4/2 108/4/2 110/4/2
f 111/4/2 112/4/2 115/4/2
f 115/4/2 112/4/2 116/4/2
f 113/5/2 114/5/2 117/5/2
f 117/5/2 114/5/2 118/5/2
f 117/1/2 118/1/2 119/1/2
f 119/1/2 118/1/2 120/1/2
f 121/3/2 122/3/2 126/3/2
f 122/1/2 123/1/2 127/1/2
f 126/3/2 122/3/2 127/3/2
f 127/1/2 123/1/2 128/1/2
f 124/2/2 125/2/2 129/2/2
f 129/2/2 125/2/2 130/2/2
f 130/2/2 125/2/2 131/2/2
f 130/5/2 131/5/2 132/5/2
f 132/5/2 131/5/2 133/5/2
f 133/5/2 131/5/2 134/5/2
f 133/2/2 134/2/2 135/2/2
f 135/2/2 134/2/2 136/2/2
f 136/2/2 134/2/2 137/2/2
f 136/2/2 137/2/2 139/2/2
f 137/2/2 138/2/2 139/2/2
f 139/2/2 138/2/2 140/2/2
f 141/5/2 142/5/2 153/5/2
f 142/1/2 143/1/2 154/1/2
f 153/5/2 142/5/2 154/5/2
f 143/5/2 144/5/2 155/5/2
f 154/1/2 143/1/2 155/1/2
f 144/1/2 145/1/2 156/1/2
f 155/5/2 144/5/2 156/5/2
f 145/2/2 146/2/2 157/2/2
f 156/1/2 145/1/2 157/1/2
f 157/2/2 146/2/2 158/2/2
f 147/2/2 148/2/2 159/2/2
f 151/5/2 152/5/2 160/5/2
f 153/1/2 154/1/2 162/1/2
f 154/5/2 155/5/2 163/5/2
f 162/1/2 154/1/2 163/1/2
f 155/1/2 156/1/2 164/1/2
f 163/5/2 155/5/2 164/5/2
f 156/5/2 157/5/2 165/5/2
f 164/1/2 156/1/2 165/1/2
f 158/2/2 159/2/2 166/2/2
f 165/5/2 157/5/2 166/5/2
f 157/2/2 158/2/2 166/2/2
f 148/1/2 149/1/2 167/1/2
f 166/2/2 159/2/2 167/2/2
f 159/2/2 148/2/2 167/2/2
f 149/5/2 150/5/2 168/5/2
f 167/1/2 149/1/2 168/1/2
f 150/1/2 151/1/2 169/1/2
f 168/5/2 150/5/2 169/5/2
f 151/5/2 160/5/2 170/5/2
f 169/1/2 151/1/2 170/1/2
f 160/2/2 161/2/2 171/2/2
f 170/5/2 160/5/2 171/5/2
f 171/2/2 161/2/2 172/2/2
f 173/4/2 174/4/2 175/4/2
f 175/4/2 174/4/2 176/4/2
f 177/2/2 178/2/2 179/2/2
f 179/2/2 178/2/2 180/2/2
f 181/5/2 182/5/2 183/5/2
f 183/5/2 182/5/2 184/5/2
f 185/2/2 186/2/2 187/2/2
f 187/2/2 186/2/2 188/2/2
f 189/2/2 190/2/2 191/2/2
f 191/2/2 190/2/2 192/2/2
f 193/1/2 194/1/2 197/1/2
f 197/1/2 194/1/2 198/1/2
f 195/1/2 196/1/2 199/1/2
f 199/1/2 196/1/2 200/1/2
f 201/1/2 202/1/2 203/1/2
f 203/1/2 202/1/2 204/1/2
f 208/5/3 206/5/3 205/5/3
f 209/1/3 207/1/3 206/1/3
f 209/5/3 206/5/3 208/5/3
f 210/1/3 207/1/3 209/1/3
f 214/5/3 212/5/3 211/5/3
f 215/1/3 213/1/3 212/1/3
f 215/5/3 212/5/3 214/5/3
f 216/1/3 213/1/3 215/1/3
f 220/5/3 218/5/3 217/5/3
f 221/1/3 219/1/3 218/1/3
f 221/5/3 218/5/3 220/5/3
f 222/1/3 219/1/3 221/1/3
f 225/4/3 224/4/3 223/4/3
f 226/4/3 224/4/3 225/4/3
f 229/3/3 228/3/3 227/3/3
f 230/3/3 228/3/3 229/3/3
f 233/1/3 232/1/3 231/1/3
f 234/1/3 232/1/3 233/1/3
f 235/2/3 234/2/3 233/2/3
f 236/2/3 234/2/3 235/2/3
f 237/1/3 236/1/3 235/1/3
f 238/1/3 236/1/3 237/1/3
f 239/5/3 238/5/3 237/5/3
f 240/5/3 238/5/3 239/5/3
f 241/1/3 240/1/3 239/1/3
f 242/1/3 240/1/3 241/1/3
f 243/2/3 242/2/3 241/2/3
f 244/2/3 242/2/3 243/2/3
f 247/2/3 246/2/3 245/2/3
f 248/2/3 246/2/3 247/2/3
f 249/1/3 248/1/3 247/1/3
f 250/1/3 248/1/3 249/1/3
f 251/5/3 250/5/3 249/5/3
f 252/5/3 250/5/3 251/5/3
f 253/1/3 252/1/3 251/1/3
f 254/1/3 252/1/3 253/1/3
f 255/2/3 254/2/3 253/2/3
f 256/2/3 254/2/3 255/2/3
f 257/1/3 256/1/3 255/1/3
f 258/1/3 256/1/3 257/1/3
f 261/1/3 260/1/3 259/1/3
f 262/1/3 260/1/3 261/1/3
f 265/1/3 264/1/3 263/1/3
f 266/1/3 264/1/3 265/1/3
f 269/4/3 268/4/3 267/4/3
f 270/4/3 268/4/3 269/4/3
f 273/4/3 272/4/3 271/4/3
f 274/4/3 272/4/3 273/4/3
f 277/2/3 276/2/3 275/2/3
f 278/2/3 276/2/3 277/2/3
f 281/2/3 280/2/3 279/2/3
f 282/2/3 280/2/3 281/2/3
f 285/2/3 284/2/3 283/2/3
f 286/2/3 284/2/3 285/2/3
f 289/5/3 288/5/3 287/5/3
f 290/5/3 288/5/3 289/5/3
f 293/5/3 292/5/3 291/5/3
f 294/5/3 292/5/3 293/5/3
f 297/5/3 296/5/3 295/5/3
f 298/5/3 296/5/3 297/5/3
f 301/2/3 300/2/3 299/2/3
f 302/2/3 300/2/3 301/2/3
f 305/2/3 304/2/3 303/2/3
f 306/2/3 304/2/3 305/2/3
f 309/2/3 308/2/3 307/2/3
f 310/2/3 308/2/3 309/2/3
f 313/2/3 312/2/3 311/2/3
f 314/2/3 312/2/3 313/2/3
f 317/2/3 316/2/3 315/2/3
f 318/2/3 316/2/3 317/2/3
f 321/2/3 320/2/3 319/2/3
f 322/2/3 320/2/3 321/2/3
f 323/4/4 324/4/4 325/4/4
f 325/4/4 324/4/4 326/4/4
f 327/1/4 328/1/4 329/1/4
f 329/1/4 328/1/4 330/1/4
f 331/4/4 332/4/4 333/4/4
f 333/4/4 332/4/4 334/4/4
f 335/4/4 336/4/4 337/4/4
f 337/4/4 336/4/4 338/4/4
f 339/1/4 340/1/4 341/1/4
f 341/1/4 340/1/4 342/1/4
f 343/1/4 344/1/4 345/1/4
f 345/1/4 344/1/4 346/1/4
f 345/2/4 346/2/4 347/2/4
f 347/2/4 346/2/4 348/2/4
f 347/1/4 348/1/4 349/1/4
f 349/1/4 348/1/4 350/1/4
f 349/5/4 350/5/4 351/5/4
f 351/5/4 350/5/4 352/5/4
f 351/1/4 352/1/4 353/1/4
f 353/1/4 352/1/4 354/1/4
f 353/2/4 354/2/4 355/2/4
f 355/2/4 354/2/4 356/2/4
f 357/1/4 358/1/4 359/1/4
f 359/1/4 358/1/4 360/1/4
f 361/2/4 362/2/4 363/2/4
f 363/2/4 362/2/4 364/2/4
f 363/1/4 364/1/4 365/1/4
f 365/1/4 364/1/4 366/1/4
f 365/5/4 366/5/4 367/5/4
f 367/5/4 366/5/4 368/5/4
f 367/1/4 368/1/4 369/1/4
f 369/1/4 368/1/4 370/1/4
f 369/2/4 370/2/4 371/2/4
f 371/2/4 370/2/4 372/2/4
f 371/1/4 372/1/4 373/1/4
f 373/1/4 372/1/4 374/1/4
f 375/2/4 376/2/4 377/2/4
f 377/2/4 376/2/4 378/2/4
f 377/5/4 378/5/4 379/5/4
f 379/5/4 378/5/4 380/5/4
f 379/2/4 380/2/4 381/2/4
f 381/2/4 382/2/4 383/2/4
f 381/2/4 383/2/4 387/2/4
f 383/2/4 384/2/4 387/2/4
f 384/5/4 385/5/4 388/5/4
f 387/2/4 384/2/4 388/2/4
f 385/2/4 386/2/4 389/2/4
f 388/5/4 385/5/4 389/5/4
f 389/2/4 386/2/4 390/2/4
f 379/2/4 381/2/4 391/2/4
f 381/2/4 387/2/4 391/2/4
f 391/2/4 387/2/4 392/2/4
f 379/2/4 391/2/4 393/2/4
f 393/2/4 391/2/4 394/2/4
f 393/5/4 394/5/4 395/5/4
f 395/5/4 394/5/4 396/5/4
f 395/2/4 396/2/4 397/2/4
f 397/2/4 396/2/4 398/2/4
f 399/2/4 400/2/4 401/2/4
f 401/2/4 400/2/4 402/2/4
f 403/2/4 404/2/4 405/2/4
f 405/2/4 404/2/4 406/2/4
f 407/2/4 408/2/4 409/2/4
f 409/2/4 408/2/4 410/2/4
f 413/4/5 412/4/5 411/4/5
f 414/4/5 412/4/5 413/4/5
f 419/4/5 416/4/5 415/4/5
f 420/4/5 416/4/5 419/4/5
f 421/4/5 418/4/5 417/4/5
f 422/4/5 418/4/5 421/4/5
f 426/5/5 424/5/5 423/5/5
f 427/5/5 424/5/5 426/5/5
f 429/5/5 426/5/5 425/5/5
f 430/1/5 427/1/5 426/1/5
f 430/5/5 426/5/5 429/5/5
f 431/5/5 428/5/5 427/5/5
f 431/1/5 427/1/5 430/1/5
f 432/5/5 428/5/5 431/5/5
f 433/1/5 430/1/5 429/1/5
f 434/1/5 430/1/5 433/1/5
f 435/1/5 432/1/5 431/1/5
f 436/1/5 432/1/5 435/1/5
f 437/5/5 434/5/5 433/5/5
f 438/1/5 435/1/5 434/1/5
f 438/5/5 434/5/5 437/5/5
f 439/5/5 436/5/5 435/5/5
f 439/1/5 435/1/5 438/1/5
f 440/5/5 436/5/5 439/5/5
f 441/1/5 438/1/5 437/1/5
f 442/5/5 439/5/5 438/5/5
f 442/1/5 438/1/5 441/1/5
f 443/1/5 440/1/5 439/1/5
f 443/5/5 439/5/5 442/5/5
f 444/1/5 440/1/5 443/1/5
f 451/2/5 442/2/5 441/2/5
f 451/2/5 443/2/5 442/2/5
f 451/2/5 444/2/5 443/2/5
f 452/2/5 444/2/5 451/2/5
f 460/1/5 446/1/5 445/1/5
f 461/2/5 447/2/5 446/2/5
f 461/1/5 446/1/5 460/1/5
f 462/1/5 458/1/5 457/1/5
f 462/2/5 457/2/5 456/2/5
f 463/1/5 458/1/5 462/1/5
f 465/2/5 452/2/5 451/2/5
f 465/2/5 451/2/5 450/2/5
f 465/1/5 450/1/5 449/1/5
f 465/2/5 453/2/5 452/2/5
f 466/2/5 453/2/5 465/2/5
f 467/2/5 453/2/5 466/2/5
f 468/1/5 454/1/5 453/1/5
f 468/2/5 453/2/5 467/2/5
f 469/1/5 460/1/5 459/1/5
f 470/5/5 461/5/5 460/5/5
f 470/1/5 460/1/5 469/1/5
f 471/2/5 447/2/5 461/2/5
f 471/5/5 461/5/5 470/5/5
f 472/1/5 465/1/5 449/1/5
f 473/2/5 467/2/5 466/2/5
f 474/2/5 467/2/5 473/2/5
f 475/1/5 454/1/5 468/1/5
f 476/5/5 463/5/5 462/5/5
f 476/2/5 462/2/5 456/2/5
f 477/1/5 464/1/5 463/1/5
f 477/5/5 463/5/5 476/5/5
f 478/1/5 464/1/5 477/1/5
f 479/1/5 471/1/5 470/1/5
f 480/2/5 447/2/5 471/2/5
f 480/1/5 471/1/5 479/1/5
f 481/1/5 448/1/5 447/1/5
f 481/2/5 447/2/5 480/2/5
f 482/5/5 449/5/5 448/5/5
f 482/1/5 448/1/5 481/1/5
f 483/1/5 472/1/5 449/1/5
f 483/5/5 449/5/5 482/5/5
f 484/2/5 475/2/5 474/2/5
f 484/1/5 472/1/5 483/1/5
f 484/2/5 474/2/5 473/2/5
f 484/2/5 473/2/5 472/2/5
f 485/2/5 475/2/5 484/2/5
f 486/2/5 475/2/5 485/2/5
f 487/1/5 454/1/5 475/1/5
f 487/2/5 475/2/5 486/2/5
f 488/5/5 455/5/5 454/5/5
f 488/1/5 454/1/5 487/1/5
f 489/1/5 456/1/5 455/1/5
f 489/5/5 455/5/5 488/5/5
f 490/2/5 476/2/5 456/2/5
f 490/1/5 456/1/5 489/1/5
f 491/1/5 477/1/5 476/1/5
f 491/2/5 476/2/5 490/2/5
f 492/1/5 477/1/5 491/1/5
f 493/2/5 486/2/5 485/2/5
f 494/2/5 486/2/5 493/2/5
f 495/1/5 494/1/5 493/1/5
f 496/1/5 494/1/5 495/1/5
f 497/5/5 496/5/5 495/5/5
f 498/5/5 496/5/5 497/5/5
f 499/1/5 498/1/5 497/1/5
f 500/1/5 498/1/5 499/1/5
f 502/5/5 500/5/5 499/5/5
f 503/5/5 500/5/5 502/5/5
f 506/2/5 503/2/5 502/2/5
f 506/2/5 504/2/5 503/2/5
f 506/2/5 502/2/5 501/2/5
f 507/2/5 504/2/5 506/2/5
f 510/5/5 506/5/5 505/5/5
f 511/5/5 508/5/5 507/5/5
f 514/2/5 510/2/5 509/2/5
f 515/2/5 512/2/5 511/2/5
f 517/2/5 514/2/5 513/2/5
f 517/2/5 510/2/5 514/2/5
f 518/5/5 506/5/5 510/5/5
f 518/2/5 510/2/5 517/2/5
f 519/2/5 507/2/5 506/2/5
f 519/5/5 506/5/5 518/5/5
f 520/5/5 511/5/5 507/5/5
f 520/2/5 507/2/5 519/2/5
f 521/2/5 516/2/5 515/2/5
f 521/5/5 511/5/5 520/5/5
f 521/2/5 515/2/5 511/2/5
f 522/2/5 516/2/5 521/2/5
f 523/2/5 517/2/5 513/2/5
f 524/2/5 517/2/5 523/2/5
f 525/2/5 516/2/5 522/2/5
f 526/2/5 516/2/5 525/2/5
f 529/2/5 528/2/5 527/2/5
f 530/2/5 528/2/5 529/2/5
f 531/1/6 532/1/6 546/1/6
f 532/2/6 533/2/6 547/2/6
f 546/1/6 532/1/6 547/1/6
f 543/1/6 544/1/6 548/1/6
f 542/2/6 543/2/6 548/2/6
f 548/1/6 544/1/6 549/1/6
f 545/1/6 546/1/6 551/1/6
f 546/5/6 547/5/6 552/5/6
f 551/1/6 546/1/6 552/1/6
f 547/2/6 533/2/6 553/2/6
f 552/5/6 547/5/6 553/5/6
f 542/2/6 548/2/6 554/2/6
f 548/5/6 549/5/6 554/5/6
f 549/1/6 550/1/6 555/1/6
f 554/5/6 549/5/6 555/5/6
f 555/1/6 550/1/6 556/1/6
f 552/1/6 553/1/6 557/1/6
f 553/2/6 533/2/6 558/2/6
f 557/1/6 553/1/6 558/1/6
f 533/1/6 534/1/6 559/1/6
f 558/2/6 533/2/6 559/2/6
f 534/5/6 535/5/6 560/5/6
f 559/1/6 534/1/6 560/1/6
f 535/1/6 536/1/6 561/1/6
f 560/5/6 535/5/6 561/5/6
f 536/2/6 537/2/6 562/2/6
f 561/1/6 536/1/6 562/1/6
f 562/2/6 537/2/6 563/2/6
f 538/2/6 539/2/6 564/2/6
f 539/1/6 540/1/6 565/1/6
f 564/2/6 539/2/6 565/2/6
f 540/5/6 541/5/6 566/5/6
f 565/1/6 540/1/6 566/1/6
f 541/1/6 542/1/6 567/1/6
f 566/5/6 541/5/6 567/5/6
f 542/2/6 554/2/6 568/2/6
f 567/1/6 542/1/6 568/1/6
f 554/1/6 555/1/6 569/1/6
f 568/2/6 554/2/6 569/2/6
f 569/1/6 555/1/6 570/1/6
f 571/2/6 572/2/6 576/2/6
f 573/2/6 574/2/6 577/2/6
f 575/5/6 576/5/6 580/5/6
f 577/5/6 578/5/6 581/5/6
f 579/2/6 580/2/6 584/2/6
f 581/2/6 582/2/6 585/2/6
f 583/2/6 584/2/6 587/2/6
f 584/2/6 580/2/6 587/2/6
f 580/5/6 576/5/6 588/5/6
f 587/2/6 580/2/6 588/2/6
f 576/2/6 572/2/6 589/2/6
f 588/5/6 576/5/6 589/5/6
f 589/2/6 572/2/6 590/2/6
f 573/2/6 577/2/6 591/2/6
f 577/5/6 581/5/6 592/5/6
f 591/2/6 577/2/6 592/2/6
f 585/2/6 586/2/6 593/2/6
f 592/5/6 581/5/6 593/5/6
f 581/2/6 585/2/6 593/2/6
f 593/2/6 586/2/6 594/2/6
f 583/2/6 587/2/6 595/2/6
f 595/2/6 587/2/6 596/2/6
f 594/2/6 586/2/6 597/2/6
f 597/2/6 586/2/6 598/2/6
f 599/1/6 600/1/6 602/1/6
f 602/1/6 600/1/6 603/1/6
f 601/1/6 602/1/6 605/1/6
f 602/5/6 603/5/6 606/5/6
f 605/1/6 602/1/6 606/1/6
f 603/1/6 604/1/6 607/1/6
f 606/5/6 603/5/6 607/5/6
f 607/1/6 604/1/6 608/1/6
f 605/5/6 606/5/6 609/5/6
f 606/1/6 607/1/6 610/1/6
f 609/5/6 606/5/6 610/5/6
f 607/5/6 608/5/6 611/5/6
f 610/1/6 607/1/6 611/1/6
f 611/5/6 608/5/6 612/5/6
f 609/1/6 610/1/6 613/1/6
f 610/5/6 611/5/6 614/5/6
f 613/1/6 610/1/6 614/1/6
f 611/1/6 612/1/6 615/1/6
f 614/5/6 611/5/6 615/5/6
f 615/1/6 612/1/6 616/1/6
f 613/5/6 614/5/6 617/5/6
f 614/1/6 615/1/6 618/1/6
f 617/5/6 614/5/6 618/5/6
f 615/5/6 616/5/6 619/5/6
f 618/1/6 615/1/6 619/1/6
f 619/5/6 616/5/6 620/5/6
f 617/2/6 618/2/6 621/2/6
f 618/5/6 619/5/6 621/5/6
f 619/2/6 620/2/6 622/2/6
f 621/5/6 619/5/6 622/5/6
f 617/2/6 621/2/6 623/2/6
f 622/2/6 620/2/6 624/2/6
f 617/2/6 623/2/6 625/2/6
f 624/2/6 620/2/6 626/2/6
f 617/2/6 625/2/6 627/2/6
f 625/5/6 626/5/6 628/5/6
f 627/2/6 625/2/6 628/2/6
f 626/2/6 620/2/6 629/2/6
f 628/5/6 626/5/6 629/5/6
f 629/2/6 620/2/6 630/2/6
f 627/1/6 628/1/6 631/1/6
f 628/1/6 629/1/6 631/1/6
f 629/1/6 630/1/6 631/1/6
f 631/1/6 630/1/6 632/1/6
f 631/5/6 632/5/6 633/5/6
f 633/5/6 632/5/6 634/5/6
f 633/1/6 634/1/6 635/1/6
f 635/1/6 634/1/6 636/1/6
f 635/5/6 636/5/6 637/5/6
f 637/5/6 636/5/6 638/5/6
f 638/5/6 636/5/6 639/5/6
f 639/5/6 636/5/6 640/5/6
f 637/2/6 638/2/6 641/2/6
f 641/2/6 638/2/6 642/2/6
f 639/2/6 640/2/6 643/2/6
f 643/2/6 640/2/6 644/2/6
f 645/3/6 646/3/6 647/3/6
f 647/3/6 646/3/6 648/3/6
f 647/1/6 648/1/6 649/1/6
f 649/1/6 648/1/6 650/1/6
f 651/2/6 652/2/6 653/2/6
f 653/2/6 652/2/6 654/2/6
f 655/5/6 656/5/6 657/5/6
f 657/5/6 656/5/6 658/5/6
f 659/2/6 660/2/6 661/2/6
f 661/2/6 660/2/6 662/2/6
f 663/2/6 664/2/6 665/2/6
f 665/2/6 664/2/6 666/2/6
