# MagicaVoxel @ Ephtracy

# material
mtllib HE51RED_P.mtl
usemtl palette

# normals
vn -1 0 0
vn 1 0 0
vn 0 0 1
vn 0 0 -1
vn 0 -1 0
vn 0 1 0

# texcoords
vt 0.0605469 0.5
vt 0.845703 0.5

# verts
v 31 0 29
v 31 0 25
v 31 8 33
v 31 8 29
v 31 12 33
v 31 12 29
v 31 20 29
v 31 20 25
v 35 0 29
v 35 0 25
v 35 8 33
v 35 8 29
v 35 12 33
v 35 12 29
v 35 20 29
v 35 20 25
v 31 8 33
v 31 12 33
v 35 8 33
v 35 12 33
v 31 0 29
v 31 8 29
v 31 12 29
v 31 20 29
v 35 0 29
v 35 8 29
v 35 12 29
v 35 20 29
v 31 0 25
v 31 20 25
v 35 0 25
v 35 20 25
v 31 0 29
v 35 0 29
v 31 0 25
v 35 0 25
v 31 8 33
v 35 8 33
v 31 8 29
v 35 8 29
v 31 12 33
v 35 12 33
v 31 12 29
v 35 12 29
v 31 20 29
v 35 20 29
v 31 20 25
v 35 20 25

# faces
f 4/1/1 2/1/1 1/1/1
f 5/2/1 4/2/1 3/2/1
f 6/1/1 2/1/1 4/1/1
f 6/2/1 4/2/1 5/2/1
f 7/1/1 2/1/1 6/1/1
f 8/1/1 2/1/1 7/1/1
f 9/1/2 10/1/2 12/1/2
f 11/2/2 12/2/2 13/2/2
f 12/1/2 10/1/2 14/1/2
f 13/2/2 12/2/2 14/2/2
f 14/1/2 10/1/2 15/1/2
f 15/1/2 10/1/2 16/1/2
f 19/2/3 18/2/3 17/2/3
f 20/2/3 18/2/3 19/2/3
f 25/1/3 22/1/3 21/1/3
f 26/1/3 22/1/3 25/1/3
f 27/1/3 24/1/3 23/1/3
f 28/1/3 24/1/3 27/1/3
f 29/1/4 30/1/4 31/1/4
f 31/1/4 30/1/4 32/1/4
f 35/1/5 34/1/5 33/1/5
f 36/1/5 34/1/5 35/1/5
f 39/2/5 38/2/5 37/2/5
f 40/2/5 38/2/5 39/2/5
f 41/2/6 42/2/6 43/2/6
f 43/2/6 42/2/6 44/2/6
f 45/1/6 46/1/6 47/1/6
f 47/1/6 46/1/6 48/1/6
