# MagicaVoxel @ Ephtracy

# material
mtllib BF109.mtl
usemtl palette

# normals
vn -1 0 0
vn 1 0 0
vn 0 0 1
vn 0 0 -1
vn 0 -1 0
vn 0 1 0

# texcoords
vt 0.00195313 0.5
vt 0.0292969 0.5
vt 0.0332031 0.5
vt 0.0605469 0.5
vt 0.798828 0.5
vt 0.802734 0.5
vt 0.845703 0.5
vt 0.947266 0.5

# verts
v -50 8 -6
v -50 8 -14
v -50 12 -6
v -50 12 -14
v -46 8 -2
v -46 8 -6
v -46 8 -14
v -46 8 -18
v -46 12 -2
v -46 12 -6
v -46 12 -14
v -46 12 -18
v -42 8 2
v -42 8 -2
v -42 8 -18
v -42 8 -22
v -42 12 2
v -42 12 -2
v -42 12 -18
v -42 12 -22
v -30 4 2
v -30 4 -22
v -30 8 2
v -30 8 -22
v -26 4 6
v -26 4 2
v -26 8 6
v -26 8 2
v -18 12 -50
v -18 12 -54
v -18 16 -50
v -18 16 -54
v -14 12 -46
v -14 12 -50
v -14 12 -54
v -14 12 -58
v -14 16 -46
v -14 16 -50
v -14 16 -54
v -14 16 -58
v -10 4 -14
v -10 4 -18
v -10 8 -14
v -10 8 -18
v -10 8 -50
v -10 8 -54
v -10 12 18
v -10 12 10
v -10 12 -50
v -10 12 -54
v -10 16 18
v -10 16 10
v -6 8 30
v -6 8 26
v -6 8 2
v -6 8 -22
v -6 8 -50
v -6 12 18
v -6 12 10
v -6 12 2
v -6 12 -22
v -6 12 -46
v -6 12 -50
v -6 16 18
v -6 16 10
v -6 16 -46
v -6 16 -58
v -6 20 30
v -6 20 26
v -6 20 -58
v -2 4 26
v -2 4 22
v -2 8 26
v -2 8 22
v -2 12 34
v -2 12 30
v -2 16 34
v -2 16 30
v -2 20 -10
v -2 20 -26
v -2 20 -58
v -2 24 -10
v -2 24 -26
v -2 24 -46
v -2 28 -46
v -2 28 -50
v -2 28 -54
v -2 28 -58
v -2 32 -50
v -2 32 -54
v 6 4 -14
v 6 4 -18
v 6 8 -14
v 6 8 -18
v 18 4 2
v 18 4 -22
v 18 8 2
v 18 8 -22
v 22 4 6
v 22 4 2
v 22 8 6
v 22 8 2
v -22 4 6
v -22 4 2
v -22 8 6
v -22 8 2
v -18 4 2
v -18 4 -22
v -18 8 2
v -18 8 -22
v -6 4 -14
v -6 4 -18
v -6 8 -14
v -6 8 -18
v 2 4 26
v 2 4 22
v 2 8 26
v 2 8 22
v 2 12 34
v 2 12 30
v 2 16 34
v 2 16 30
v 2 20 -10
v 2 20 -26
v 2 20 -58
v 2 24 -10
v 2 24 -26
v 2 24 -46
v 2 28 -46
v 2 28 -50
v 2 28 -54
v 2 28 -58
v 2 32 -50
v 2 32 -54
v 6 8 30
v 6 8 26
v 6 8 2
v 6 8 -22
v 6 8 -50
v 6 12 18
v 6 12 10
v 6 12 2
v 6 12 -22
v 6 12 -46
v 6 12 -50
v 6 16 18
v 6 16 10
v 6 16 -46
v 6 16 -58
v 6 20 30
v 6 20 26
v 6 20 -58
v 10 4 -14
v 10 4 -18
v 10 8 -14
v 10 8 -18
v 10 8 -50
v 10 8 -54
v 10 12 18
v 10 12 10
v 10 12 -50
v 10 12 -54
v 10 16 18
v 10 16 10
v 14 12 -46
v 14 12 -50
v 14 12 -54
v 14 12 -58
v 14 16 -46
v 14 16 -50
v 14 16 -54
v 14 16 -58
v 18 12 -50
v 18 12 -54
v 18 16 -50
v 18 16 -54
v 26 4 6
v 26 4 2
v 26 8 6
v 26 8 2
v 30 4 2
v 30 4 -22
v 30 8 2
v 30 8 -22
v 42 8 2
v 42 8 -2
v 42 8 -18
v 42 8 -22
v 42 12 2
v 42 12 -2
v 42 12 -18
v 42 12 -22
v 46 8 -2
v 46 8 -6
v 46 8 -14
v 46 8 -18
v 46 12 -2
v 46 12 -6
v 46 12 -14
v 46 12 -18
v 50 8 -6
v 50 8 -14
v 50 12 -6
v 50 12 -14
v -2 12 34
v -2 16 34
v 2 12 34
v 2 16 34
v -6 8 30
v -6 20 30
v -2 12 30
v -2 16 30
v 2 12 30
v 2 16 30
v 6 8 30
v 6 20 30
v -2 4 26
v -2 8 26
v 2 4 26
v 2 8 26
v -10 12 18
v -10 16 18
v -6 12 18
v -6 16 18
v 6 12 18
v 6 16 18
v 10 12 18
v 10 16 18
v -26 4 6
v -26 8 6
v -22 4 6
v -22 8 6
v 22 4 6
v 22 8 6
v 26 4 6
v 26 8 6
v -42 8 2
v -42 12 2
v -30 4 2
v -30 8 2
v -26 4 2
v -26 8 2
v -22 4 2
v -22 8 2
v -18 4 2
v -18 8 2
v -6 8 2
v -6 12 2
v 6 8 2
v 6 12 2
v 18 4 2
v 18 8 2
v 22 4 2
v 22 8 2
v 26 4 2
v 26 8 2
v 30 4 2
v 30 8 2
v 42 8 2
v 42 12 2
v -46 8 -2
v -46 12 -2
v -42 8 -2
v -42 12 -2
v 42 8 -2
v 42 12 -2
v 46 8 -2
v 46 12 -2
v -50 8 -6
v -50 12 -6
v -46 8 -6
v -46 12 -6
v 46 8 -6
v 46 12 -6
v 50 8 -6
v 50 12 -6
v -2 20 -10
v -2 24 -10
v 2 20 -10
v 2 24 -10
v -10 4 -14
v -10 8 -14
v -6 4 -14
v -6 8 -14
v 6 4 -14
v 6 8 -14
v 10 4 -14
v 10 8 -14
v -14 12 -46
v -14 16 -46
v -6 12 -46
v -6 16 -46
v -2 24 -46
v -2 28 -46
v 2 24 -46
v 2 28 -46
v 6 12 -46
v 6 16 -46
v 14 12 -46
v 14 16 -46
v -18 12 -50
v -18 16 -50
v -14 12 -50
v -14 16 -50
v -10 8 -50
v -10 12 -50
v -6 8 -50
v -6 12 -50
v -2 28 -50
v -2 32 -50
v 2 28 -50
v 2 32 -50
v 6 8 -50
v 6 12 -50
v 10 8 -50
v 10 12 -50
v 14 12 -50
v 14 16 -50
v 18 12 -50
v 18 16 -50
v -2 4 22
v -2 8 22
v 2 4 22
v 2 8 22
v -10 12 10
v -10 16 10
v -6 12 10
v -6 16 10
v 6 12 10
v 6 16 10
v 10 12 10
v 10 16 10
v -50 8 -14
v -50 12 -14
v -46 8 -14
v -46 12 -14
v 46 8 -14
v 46 12 -14
v 50 8 -14
v 50 12 -14
v -46 8 -18
v -46 12 -18
v -42 8 -18
v -42 12 -18
v -10 4 -18
v -10 8 -18
v -6 4 -18
v -6 8 -18
v 6 4 -18
v 6 8 -18
v 10 4 -18
v 10 8 -18
v 42 8 -18
v 42 12 -18
v 46 8 -18
v 46 12 -18
v -42 8 -22
v -42 12 -22
v -30 4 -22
v -30 8 -22
v -18 4 -22
v -18 8 -22
v -6 8 -22
v -6 12 -22
v 6 8 -22
v 6 12 -22
v 18 4 -22
v 18 8 -22
v 30 4 -22
v 30 8 -22
v 42 8 -22
v 42 12 -22
v -18 12 -54
v -18 16 -54
v -14 12 -54
v -14 16 -54
v -10 8 -54
v -10 12 -54
v -6 8 -54
v -6 12 -54
v -2 28 -54
v -2 32 -54
v 2 28 -54
v 2 32 -54
v 6 8 -54
v 6 12 -54
v 10 8 -54
v 10 12 -54
v 14 12 -54
v 14 16 -54
v 18 12 -54
v 18 16 -54
v -14 12 -58
v -14 16 -58
v -6 16 -58
v -6 20 -58
v -2 20 -58
v -2 28 -58
v 2 20 -58
v 2 28 -58
v 6 16 -58
v 6 20 -58
v 14 12 -58
v 14 16 -58
v -2 4 26
v 2 4 26
v -2 4 22
v 2 4 22
v -26 4 6
v -22 4 6
v 22 4 6
v 26 4 6
v -30 4 2
v -26 4 2
v -22 4 2
v -18 4 2
v 18 4 2
v 22 4 2
v 26 4 2
v 30 4 2
v -10 4 -14
v -6 4 -14
v 6 4 -14
v 10 4 -14
v -10 4 -18
v -6 4 -18
v 6 4 -18
v 10 4 -18
v -30 4 -22
v -18 4 -22
v 18 4 -22
v 30 4 -22
v -6 8 30
v 6 8 30
v -6 8 26
v -2 8 26
v 2 8 26
v 6 8 26
v -2 8 22
v 2 8 22
v -42 8 2
v -30 8 2
v -18 8 2
v -6 8 2
v 6 8 2
v 18 8 2
v 30 8 2
v 42 8 2
v -46 8 -2
v -42 8 -2
v 42 8 -2
v 46 8 -2
v -50 8 -6
v -46 8 -6
v 46 8 -6
v 50 8 -6
v -50 8 -14
v -46 8 -14
v -10 8 -14
v -6 8 -14
v 6 8 -14
v 10 8 -14
v 46 8 -14
v 50 8 -14
v -46 8 -18
v -42 8 -18
v -10 8 -18
v -6 8 -18
v 6 8 -18
v 10 8 -18
v 42 8 -18
v 46 8 -18
v -42 8 -22
v -30 8 -22
v -18 8 -22
v -6 8 -22
v 6 8 -22
v 18 8 -22
v 30 8 -22
v 42 8 -22
v -10 8 -50
v -6 8 -50
v 6 8 -50
v 10 8 -50
v -10 8 -54
v -6 8 -54
v 6 8 -54
v 10 8 -54
v -2 12 34
v 2 12 34
v -2 12 30
v 2 12 30
v -10 12 18
v -6 12 18
v 6 12 18
v 10 12 18
v -10 12 10
v -6 12 10
v 6 12 10
v 10 12 10
v -14 12 -46
v -6 12 -46
v 6 12 -46
v 14 12 -46
v -18 12 -50
v -14 12 -50
v -10 12 -50
v -6 12 -50
v 6 12 -50
v 10 12 -50
v 14 12 -50
v 18 12 -50
v -18 12 -54
v -14 12 -54
v -10 12 -54
v -6 12 -54
v 6 12 -54
v 10 12 -54
v 14 12 -54
v 18 12 -54
v -14 12 -58
v 14 12 -58
v -26 8 6
v -22 8 6
v 22 8 6
v 26 8 6
v -26 8 2
v -22 8 2
v 22 8 2
v 26 8 2
v -42 12 2
v -6 12 2
v 6 12 2
v 42 12 2
v -46 12 -2
v -42 12 -2
v 42 12 -2
v 46 12 -2
v -27 12 -4
v -26 12 -4
v -22 12 -4
v -21 12 -4
v 21 12 -4
v 22 12 -4
v 26 12 -4
v 27 12 -4
v -50 12 -6
v -46 12 -6
v 46 12 -6
v 50 12 -6
v -30 12 -7
v -27 12 -7
v -21 12 -7
v -18 12 -7
v 18 12 -7
v 21 12 -7
v 27 12 -7
v 30 12 -7
v -30 12 -8
v -26 12 -8
v -22 12 -8
v -18 12 -8
v 18 12 -8
v 22 12 -8
v 26 12 -8
v 30 12 -8
v -30 12 -12
v -26 12 -12
v -22 12 -12
v -18 12 -12
v 18 12 -12
v 22 12 -12
v 26 12 -12
v 30 12 -12
v -30 12 -13
v -27 12 -13
v -21 12 -13
v -18 12 -13
v 18 12 -13
v 21 12 -13
v 27 12 -13
v 30 12 -13
v -50 12 -14
v -46 12 -14
v 46 12 -14
v 50 12 -14
v -27 12 -16
v -26 12 -16
v -22 12 -16
v -21 12 -16
v 21 12 -16
v 22 12 -16
v 26 12 -16
v 27 12 -16
v -46 12 -18
v -42 12 -18
v 42 12 -18
v 46 12 -18
v -42 12 -22
v -6 12 -22
v 6 12 -22
v 42 12 -22
v -2 16 34
v 2 16 34
v -2 16 30
v 2 16 30
v -10 16 18
v -6 16 18
v 6 16 18
v 10 16 18
v -10 16 10
v -6 16 10
v 6 16 10
v 10 16 10
v -14 16 -46
v -6 16 -46
v 6 16 -46
v 14 16 -46
v -18 16 -50
v -14 16 -50
v 14 16 -50
v 18 16 -50
v -18 16 -54
v -14 16 -54
v 14 16 -54
v 18 16 -54
v -14 16 -58
v -6 16 -58
v 6 16 -58
v 14 16 -58
v -6 20 30
v 6 20 30
v -6 20 26
v 6 20 26
v -2 20 -10
v 2 20 -10
v -2 20 -26
v 2 20 -26
v -6 20 -58
v -2 20 -58
v 2 20 -58
v 6 20 -58
v -2 24 -10
v 2 24 -10
v -2 24 -26
v 2 24 -26
v -2 24 -46
v 2 24 -46
v -2 28 -46
v 2 28 -46
v -2 28 -50
v 2 28 -50
v -2 28 -54
v 2 28 -54
v -2 28 -58
v 2 28 -58
v -2 32 -50
v 2 32 -50
v -2 32 -54
v 2 32 -54

# faces
f 3/5/1 2/5/1 1/5/1
f 4/5/1 2/5/1 3/5/1
f 9/5/1 6/5/1 5/5/1
f 10/5/1 6/5/1 9/5/1
f 11/5/1 8/5/1 7/5/1
f 12/5/1 8/5/1 11/5/1
f 17/5/1 14/5/1 13/5/1
f 18/5/1 14/5/1 17/5/1
f 19/5/1 16/5/1 15/5/1
f 20/5/1 16/5/1 19/5/1
f 23/5/1 22/5/1 21/5/1
f 24/5/1 22/5/1 23/5/1
f 27/4/1 26/4/1 25/4/1
f 28/4/1 26/4/1 27/4/1
f 31/5/1 30/5/1 29/5/1
f 32/5/1 30/5/1 31/5/1
f 37/5/1 34/5/1 33/5/1
f 38/5/1 34/5/1 37/5/1
f 39/5/1 36/5/1 35/5/1
f 40/5/1 36/5/1 39/5/1
f 43/4/1 42/4/1 41/4/1
f 44/4/1 42/4/1 43/4/1
f 49/4/1 46/4/1 45/4/1
f 50/4/1 46/4/1 49/4/1
f 51/5/1 48/5/1 47/5/1
f 52/5/1 48/5/1 51/5/1
f 58/5/1 55/5/1 54/5/1
f 59/5/1 55/5/1 58/5/1
f 60/5/1 55/5/1 59/5/1
f 61/5/1 57/5/1 56/5/1
f 62/5/1 57/5/1 61/5/1
f 63/5/1 57/5/1 62/5/1
f 64/5/1 58/5/1 54/5/1
f 65/5/1 60/5/1 59/5/1
f 65/5/1 62/5/1 61/5/1
f 65/5/1 61/5/1 60/5/1
f 66/5/1 62/5/1 65/5/1
f 68/7/1 54/7/1 53/7/1
f 69/5/1 67/5/1 66/5/1
f 69/7/1 54/7/1 68/7/1
f 69/5/1 64/5/1 54/5/1
f 69/5/1 65/5/1 64/5/1
f 69/5/1 66/5/1 65/5/1
f 70/5/1 67/5/1 69/5/1
f 73/4/1 72/4/1 71/4/1
f 74/4/1 72/4/1 73/4/1
f 77/4/1 76/4/1 75/4/1
f 78/4/1 76/4/1 77/4/1
f 82/2/1 80/2/1 79/2/1
f 83/5/1 81/5/1 80/5/1
f 83/2/1 80/2/1 82/2/1
f 84/5/1 81/5/1 83/5/1
f 85/5/1 81/5/1 84/5/1
f 86/5/1 81/5/1 85/5/1
f 87/5/1 81/5/1 86/5/1
f 88/5/1 81/5/1 87/5/1
f 89/5/1 87/5/1 86/5/1
f 90/5/1 87/5/1 89/5/1
f 93/4/1 92/4/1 91/4/1
f 94/4/1 92/4/1 93/4/1
f 97/5/1 96/5/1 95/5/1
f 98/5/1 96/5/1 97/5/1
f 101/4/1 100/4/1 99/4/1
f 102/4/1 100/4/1 101/4/1
f 103/4/2 104/4/2 105/4/2
f 105/4/2 104/4/2 106/4/2
f 107/5/2 108/5/2 109/5/2
f 109/5/2 108/5/2 110/5/2
f 111/4/2 112/4/2 113/4/2
f 113/4/2 112/4/2 114/4/2
f 115/4/2 116/4/2 117/4/2
f 117/4/2 116/4/2 118/4/2
f 119/4/2 120/4/2 121/4/2
f 121/4/2 120/4/2 122/4/2
f 123/2/2 124/2/2 126/2/2
f 124/5/2 125/5/2 127/5/2
f 126/2/2 124/2/2 127/2/2
f 127/5/2 125/5/2 128/5/2
f 128/5/2 125/5/2 129/5/2
f 129/5/2 125/5/2 130/5/2
f 130/5/2 125/5/2 131/5/2
f 131/5/2 125/5/2 132/5/2
f 130/5/2 131/5/2 133/5/2
f 133/5/2 131/5/2 134/5/2
f 136/5/2 137/5/2 140/5/2
f 140/5/2 137/5/2 141/5/2
f 141/5/2 137/5/2 142/5/2
f 138/5/2 139/5/2 143/5/2
f 143/5/2 139/5/2 144/5/2
f 144/5/2 139/5/2 145/5/2
f 136/5/2 140/5/2 146/5/2
f 141/5/2 142/5/2 147/5/2
f 143/5/2 144/5/2 147/5/2
f 142/5/2 143/5/2 147/5/2
f 147/5/2 144/5/2 148/5/2
f 135/7/2 136/7/2 150/7/2
f 148/5/2 149/5/2 151/5/2
f 150/7/2 136/7/2 151/7/2
f 136/5/2 146/5/2 151/5/2
f 146/5/2 147/5/2 151/5/2
f 147/5/2 148/5/2 151/5/2
f 151/5/2 149/5/2 152/5/2
f 153/4/2 154/4/2 155/4/2
f 155/4/2 154/4/2 156/4/2
f 157/4/2 158/4/2 161/4/2
f 161/4/2 158/4/2 162/4/2
f 159/5/2 160/5/2 163/5/2
f 163/5/2 160/5/2 164/5/2
f 165/5/2 166/5/2 169/5/2
f 169/5/2 166/5/2 170/5/2
f 167/5/2 168/5/2 171/5/2
f 171/5/2 168/5/2 172/5/2
f 173/5/2 174/5/2 175/5/2
f 175/5/2 174/5/2 176/5/2
f 177/4/2 178/4/2 179/4/2
f 179/4/2 178/4/2 180/4/2
f 181/5/2 182/5/2 183/5/2
f 183/5/2 182/5/2 184/5/2
f 185/5/2 186/5/2 189/5/2
f 189/5/2 186/5/2 190/5/2
f 187/5/2 188/5/2 191/5/2
f 191/5/2 188/5/2 192/5/2
f 193/5/2 194/5/2 197/5/2
f 197/5/2 194/5/2 198/5/2
f 195/5/2 196/5/2 199/5/2
f 199/5/2 196/5/2 200/5/2
f 201/5/2 202/5/2 203/5/2
f 203/5/2 202/5/2 204/5/2
f 207/4/3 206/4/3 205/4/3
f 208/4/3 206/4/3 207/4/3
f 211/7/3 210/7/3 209/7/3
f 212/7/3 210/7/3 211/7/3
f 213/7/3 211/7/3 209/7/3
f 214/7/3 210/7/3 212/7/3
f 215/7/3 213/7/3 209/7/3
f 215/7/3 214/7/3 213/7/3
f 216/7/3 210/7/3 214/7/3
f 216/7/3 214/7/3 215/7/3
f 219/4/3 218/4/3 217/4/3
f 220/4/3 218/4/3 219/4/3
f 223/5/3 222/5/3 221/5/3
f 224/5/3 222/5/3 223/5/3
f 227/5/3 226/5/3 225/5/3
f 228/5/3 226/5/3 227/5/3
f 231/4/3 230/4/3 229/4/3
f 232/4/3 230/4/3 231/4/3
f 235/4/3 234/4/3 233/4/3
f 236/4/3 234/4/3 235/4/3
f 240/5/3 238/5/3 237/5/3
f 241/5/3 240/5/3 239/5/3
f 242/5/3 238/5/3 240/5/3
f 242/5/3 240/5/3 241/5/3
f 244/5/3 238/5/3 242/5/3
f 245/5/3 244/5/3 243/5/3
f 246/5/3 238/5/3 244/5/3
f 246/5/3 244/5/3 245/5/3
f 247/5/3 238/5/3 246/5/3
f 248/5/3 238/5/3 247/5/3
f 252/5/3 250/5/3 249/5/3
f 253/5/3 252/5/3 251/5/3
f 254/5/3 250/5/3 252/5/3
f 254/5/3 252/5/3 253/5/3
f 256/5/3 250/5/3 254/5/3
f 257/5/3 256/5/3 255/5/3
f 258/5/3 250/5/3 256/5/3
f 258/5/3 256/5/3 257/5/3
f 259/5/3 250/5/3 258/5/3
f 260/5/3 250/5/3 259/5/3
f 263/5/3 262/5/3 261/5/3
f 264/5/3 262/5/3 263/5/3
f 267/5/3 266/5/3 265/5/3
f 268/5/3 266/5/3 267/5/3
f 271/5/3 270/5/3 269/5/3
f 272/5/3 270/5/3 271/5/3
f 275/5/3 274/5/3 273/5/3
f 276/5/3 274/5/3 275/5/3
f 279/2/3 278/2/3 277/2/3
f 280/2/3 278/2/3 279/2/3
f 283/4/3 282/4/3 281/4/3
f 284/4/3 282/4/3 283/4/3
f 287/4/3 286/4/3 285/4/3
f 288/4/3 286/4/3 287/4/3
f 291/5/3 290/5/3 289/5/3
f 292/5/3 290/5/3 291/5/3
f 295/5/3 294/5/3 293/5/3
f 296/5/3 294/5/3 295/5/3
f 299/5/3 298/5/3 297/5/3
f 300/5/3 298/5/3 299/5/3
f 303/5/3 302/5/3 301/5/3
f 304/5/3 302/5/3 303/5/3
f 307/4/3 306/4/3 305/4/3
f 308/4/3 306/4/3 307/4/3
f 311/5/3 310/5/3 309/5/3
f 312/5/3 310/5/3 311/5/3
f 315/4/3 314/4/3 313/4/3
f 316/4/3 314/4/3 315/4/3
f 319/5/3 318/5/3 317/5/3
f 320/5/3 318/5/3 319/5/3
f 321/4/4 322/4/4 323/4/4
f 323/4/4 322/4/4 324/4/4
f 325/5/4 326/5/4 327/5/4
f 327/5/4 326/5/4 328/5/4
f 329/5/4 330/5/4 331/5/4
f 331/5/4 330/5/4 332/5/4
f 333/5/4 334/5/4 335/5/4
f 335/5/4 334/5/4 336/5/4
f 337/5/4 338/5/4 339/5/4
f 339/5/4 338/5/4 340/5/4
f 341/5/4 342/5/4 343/5/4
f 343/5/4 342/5/4 344/5/4
f 345/4/4 346/4/4 347/4/4
f 347/4/4 346/4/4 348/4/4
f 349/4/4 350/4/4 351/4/4
f 351/4/4 350/4/4 352/4/4
f 353/5/4 354/5/4 355/5/4
f 355/5/4 354/5/4 356/5/4
f 357/5/4 358/5/4 360/5/4
f 359/5/4 360/5/4 361/5/4
f 360/5/4 358/5/4 362/5/4
f 361/5/4 360/5/4 362/5/4
f 362/5/4 358/5/4 363/5/4
f 363/5/4 358/5/4 364/5/4
f 365/5/4 366/5/4 368/5/4
f 367/5/4 368/5/4 369/5/4
f 368/5/4 366/5/4 370/5/4
f 369/5/4 368/5/4 370/5/4
f 370/5/4 366/5/4 371/5/4
f 371/5/4 366/5/4 372/5/4
f 373/5/4 374/5/4 375/5/4
f 375/5/4 374/5/4 376/5/4
f 377/4/4 378/4/4 379/4/4
f 379/4/4 378/4/4 380/4/4
f 381/5/4 382/5/4 383/5/4
f 383/5/4 382/5/4 384/5/4
f 379/5/4 380/5/4 385/5/4
f 385/5/4 380/5/4 386/5/4
f 385/4/4 386/4/4 387/4/4
f 387/4/4 386/4/4 388/4/4
f 389/5/4 390/5/4 391/5/4
f 391/5/4 390/5/4 392/5/4
f 393/5/4 394/5/4 395/5/4
f 395/5/4 396/5/4 397/5/4
f 395/5/4 397/5/4 399/5/4
f 397/5/4 398/5/4 399/5/4
f 399/5/4 398/5/4 400/5/4
f 393/5/4 395/5/4 401/5/4
f 395/5/4 399/5/4 401/5/4
f 401/5/4 399/5/4 402/5/4
f 393/5/4 401/5/4 403/5/4
f 403/5/4 401/5/4 404/5/4
f 407/4/5 406/4/5 405/4/5
f 408/4/5 406/4/5 407/4/5
f 414/4/5 410/4/5 409/4/5
f 415/4/5 410/4/5 414/4/5
f 418/4/5 412/4/5 411/4/5
f 419/4/5 412/4/5 418/4/5
f 425/4/5 422/4/5 421/4/5
f 426/4/5 422/4/5 425/4/5
f 427/4/5 424/4/5 423/4/5
f 428/4/5 424/4/5 427/4/5
f 429/5/5 416/5/5 415/5/5
f 429/5/5 414/5/5 413/5/5
f 429/5/5 415/5/5 414/5/5
f 430/5/5 416/5/5 429/5/5
f 431/5/5 418/5/5 417/5/5
f 431/5/5 419/5/5 418/5/5
f 431/5/5 420/5/5 419/5/5
f 432/5/5 420/5/5 431/5/5
f 435/7/5 434/7/5 433/7/5
f 436/7/5 434/7/5 435/7/5
f 437/7/5 434/7/5 436/7/5
f 438/7/5 434/7/5 437/7/5
f 439/5/5 436/5/5 435/5/5
f 440/5/5 438/5/5 437/5/5
f 444/5/5 439/5/5 435/5/5
f 444/5/5 440/5/5 439/5/5
f 445/5/5 438/5/5 440/5/5
f 445/5/5 440/5/5 444/5/5
f 450/5/5 442/5/5 441/5/5
f 451/5/5 448/5/5 447/5/5
f 454/5/5 450/5/5 449/5/5
f 455/5/5 452/5/5 451/5/5
f 457/5/5 454/5/5 453/5/5
f 458/5/5 450/5/5 454/5/5
f 458/5/5 454/5/5 457/5/5
f 459/5/5 445/5/5 444/5/5
f 459/5/5 444/5/5 443/5/5
f 459/5/5 446/5/5 445/5/5
f 460/5/5 446/5/5 459/5/5
f 461/5/5 446/5/5 460/5/5
f 462/5/5 446/5/5 461/5/5
f 463/5/5 456/5/5 455/5/5
f 463/5/5 455/5/5 451/5/5
f 464/5/5 456/5/5 463/5/5
f 465/5/5 450/5/5 458/5/5
f 466/5/5 442/5/5 450/5/5
f 466/5/5 450/5/5 465/5/5
f 467/5/5 459/5/5 443/5/5
f 468/5/5 461/5/5 460/5/5
f 469/5/5 461/5/5 468/5/5
f 470/5/5 446/5/5 462/5/5
f 471/5/5 463/5/5 451/5/5
f 471/5/5 451/5/5 447/5/5
f 472/5/5 463/5/5 471/5/5
f 473/5/5 442/5/5 466/5/5
f 474/5/5 442/5/5 473/5/5
f 475/5/5 469/5/5 468/5/5
f 475/5/5 470/5/5 469/5/5
f 475/5/5 467/5/5 443/5/5
f 475/5/5 468/5/5 467/5/5
f 476/5/5 470/5/5 475/5/5
f 477/5/5 470/5/5 476/5/5
f 478/5/5 446/5/5 470/5/5
f 478/5/5 470/5/5 477/5/5
f 479/5/5 471/5/5 447/5/5
f 480/5/5 471/5/5 479/5/5
f 482/5/5 477/5/5 476/5/5
f 483/5/5 477/5/5 482/5/5
f 485/4/5 482/4/5 481/4/5
f 486/5/5 483/5/5 482/5/5
f 486/4/5 482/4/5 485/4/5
f 487/4/5 484/4/5 483/4/5
f 487/5/5 483/5/5 486/5/5
f 488/4/5 484/4/5 487/4/5
f 491/4/5 490/4/5 489/4/5
f 492/4/5 490/4/5 491/4/5
f 497/5/5 494/5/5 493/5/5
f 498/5/5 494/5/5 497/5/5
f 499/5/5 496/5/5 495/5/5
f 500/5/5 496/5/5 499/5/5
f 506/5/5 502/5/5 501/5/5
f 507/5/5 502/5/5 506/5/5
f 508/5/5 502/5/5 507/5/5
f 509/5/5 504/5/5 503/5/5
f 510/5/5 504/5/5 509/5/5
f 511/5/5 504/5/5 510/5/5
f 513/5/5 506/5/5 505/5/5
f 513/5/5 507/5/5 506/5/5
f 514/5/5 507/5/5 513/5/5
f 515/5/5 507/5/5 514/5/5
f 518/5/5 512/5/5 511/5/5
f 518/5/5 511/5/5 510/5/5
f 519/5/5 512/5/5 518/5/5
f 520/5/5 512/5/5 519/5/5
f 521/5/5 517/5/5 516/5/5
f 521/5/5 516/5/5 515/5/5
f 521/5/5 519/5/5 518/5/5
f 521/5/5 518/5/5 517/5/5
f 521/5/5 515/5/5 514/5/5
f 522/5/5 519/5/5 521/5/5
f 523/4/6 524/4/6 527/4/6
f 527/4/6 524/4/6 528/4/6
f 525/4/6 526/4/6 529/4/6
f 529/4/6 526/4/6 530/4/6
f 531/5/6 532/5/6 536/5/6
f 533/5/6 534/5/6 537/5/6
f 535/5/6 536/5/6 539/5/6
f 536/5/6 532/5/6 539/5/6
f 539/5/6 532/5/6 540/5/6
f 540/5/6 532/5/6 541/5/6
f 541/5/6 532/5/6 542/5/6
f 537/5/6 538/5/6 543/5/6
f 533/5/6 537/5/6 543/5/6
f 543/5/6 538/5/6 544/5/6
f 544/5/6 538/5/6 545/5/6
f 545/5/6 538/5/6 546/5/6
f 535/5/6 539/5/6 548/5/6
f 546/5/6 538/5/6 549/5/6
f 547/5/6 548/5/6 551/5/6
f 548/5/6 539/5/6 551/5/6
f 539/1/6 540/1/6 552/1/6
f 551/5/6 539/5/6 552/5/6
f 542/5/6 532/5/6 553/5/6
f 541/1/6 542/1/6 553/1/6
f 553/5/6 532/5/6 554/5/6
f 533/5/6 543/5/6 555/5/6
f 543/1/6 544/1/6 556/1/6
f 555/5/6 543/5/6 556/5/6
f 549/5/6 550/5/6 557/5/6
f 545/1/6 546/1/6 557/1/6
f 546/5/6 549/5/6 557/5/6
f 557/5/6 550/5/6 558/5/6
f 551/1/6 552/1/6 559/1/6
f 547/5/6 551/5/6 559/5/6
f 552/1/6 540/1/6 560/1/6
f 559/1/6 552/1/6 560/1/6
f 540/4/6 541/4/6 560/4/6
f 553/1/6 554/1/6 561/1/6
f 560/4/6 541/4/6 561/4/6
f 541/1/6 553/1/6 561/1/6
f 554/5/6 532/5/6 562/5/6
f 561/1/6 554/1/6 562/1/6
f 533/5/6 555/5/6 563/5/6
f 555/1/6 556/1/6 563/1/6
f 556/1/6 544/1/6 564/1/6
f 563/1/6 556/1/6 564/1/6
f 544/4/6 545/4/6 564/4/6
f 557/1/6 558/1/6 565/1/6
f 564/4/6 545/4/6 565/4/6
f 545/1/6 557/1/6 565/1/6
f 558/5/6 550/5/6 566/5/6
f 565/1/6 558/1/6 566/1/6
f 547/5/6 559/5/6 567/5/6
f 560/4/6 561/4/6 567/4/6
f 559/4/6 560/4/6 567/4/6
f 561/4/6 562/4/6 567/4/6
f 567/4/6 562/4/6 568/4/6
f 568/4/6 562/4/6 569/4/6
f 562/5/6 532/5/6 570/5/6
f 569/4/6 562/4/6 570/4/6
f 564/4/6 565/4/6 571/4/6
f 533/5/6 563/5/6 571/5/6
f 563/4/6 564/4/6 571/4/6
f 565/4/6 566/4/6 571/4/6
f 571/4/6 566/4/6 572/4/6
f 572/4/6 566/4/6 573/4/6
f 566/5/6 550/5/6 574/5/6
f 573/4/6 566/4/6 574/4/6
f 567/1/6 568/1/6 575/1/6
f 547/5/6 567/5/6 575/5/6
f 575/1/6 568/1/6 576/1/6
f 569/1/6 570/1/6 577/1/6
f 570/5/6 532/5/6 578/5/6
f 577/1/6 570/1/6 578/1/6
f 533/5/6 571/5/6 579/5/6
f 571/1/6 572/1/6 579/1/6
f 579/1/6 572/1/6 580/1/6
f 573/1/6 574/1/6 581/1/6
f 574/5/6 550/5/6 582/5/6
f 581/1/6 574/1/6 582/1/6
f 547/5/6 575/5/6 583/5/6
f 575/5/6 576/5/6 583/5/6
f 583/5/6 576/5/6 584/5/6
f 582/5/6 550/5/6 585/5/6
f 581/5/6 582/5/6 585/5/6
f 585/5/6 550/5/6 586/5/6
f 576/1/6 568/1/6 587/1/6
f 584/5/6 576/5/6 587/5/6
f 568/4/6 569/4/6 588/4/6
f 587/1/6 568/1/6 588/1/6
f 569/1/6 577/1/6 589/1/6
f 588/4/6 569/4/6 589/4/6
f 577/5/6 578/5/6 590/5/6
f 589/1/6 577/1/6 590/1/6
f 580/1/6 572/1/6 591/1/6
f 579/5/6 580/5/6 591/5/6
f 572/4/6 573/4/6 592/4/6
f 591/1/6 572/1/6 592/1/6
f 573/1/6 581/1/6 593/1/6
f 592/4/6 573/4/6 593/4/6
f 581/5/6 585/5/6 594/5/6
f 593/1/6 581/1/6 594/1/6
f 587/5/6 588/5/6 595/5/6
f 584/5/6 587/5/6 595/5/6
f 588/5/6 589/5/6 595/5/6
f 589/5/6 590/5/6 595/5/6
f 595/5/6 590/5/6 596/5/6
f 594/5/6 585/5/6 597/5/6
f 591/5/6 592/5/6 597/5/6
f 593/5/6 594/5/6 597/5/6
f 592/5/6 593/5/6 597/5/6
f 597/5/6 585/5/6 598/5/6
f 596/5/6 590/5/6 599/5/6
f 590/5/6 578/5/6 600/5/6
f 599/5/6 590/5/6 600/5/6
f 578/5/6 532/5/6 600/5/6
f 579/5/6 591/5/6 601/5/6
f 591/5/6 597/5/6 601/5/6
f 533/5/6 579/5/6 601/5/6
f 601/5/6 597/5/6 602/5/6
f 603/4/6 604/4/6 605/4/6
f 605/4/6 604/4/6 606/4/6
f 607/5/6 608/5/6 611/5/6
f 611/5/6 608/5/6 612/5/6
f 609/5/6 610/5/6 613/5/6
f 613/5/6 610/5/6 614/5/6
f 615/5/6 616/5/6 620/5/6
f 617/5/6 618/5/6 621/5/6
f 619/5/6 620/5/6 623/5/6
f 620/5/6 616/5/6 624/5/6
f 623/5/6 620/5/6 624/5/6
f 621/5/6 622/5/6 625/5/6
f 617/5/6 621/5/6 625/5/6
f 625/5/6 622/5/6 626/5/6
f 624/5/6 616/5/6 627/5/6
f 627/5/6 616/5/6 628/5/6
f 617/5/6 625/5/6 629/5/6
f 629/5/6 625/5/6 630/5/6
f 631/7/6 632/7/6 633/7/6
f 633/7/6 632/7/6 634/7/6
f 633/5/6 634/5/6 635/5/6
f 635/5/6 634/5/6 636/5/6
f 633/5/6 635/5/6 637/5/6
f 636/5/6 634/5/6 638/5/6
f 633/5/6 637/5/6 639/5/6
f 639/5/6 637/5/6 640/5/6
f 638/5/6 634/5/6 641/5/6
f 641/5/6 634/5/6 642/5/6
f 643/2/6 644/2/6 645/2/6
f 645/2/6 644/2/6 646/2/6
f 645/5/6 646/5/6 647/5/6
f 647/5/6 646/5/6 648/5/6
f 649/5/6 650/5/6 651/5/6
f 651/5/6 650/5/6 652/5/6
f 653/5/6 654/5/6 655/5/6
f 655/5/6 654/5/6 656/5/6
f 657/5/6 658/5/6 659/5/6
f 659/5/6 658/5/6 660/5/6
